<svg width="32" height="32" viewBox="0 0 32 32" fill="none" xmlns="http://www.w3.org/2000/svg">
  <defs>
    <linearGradient id="grad1" x1="0%" y1="0%" x2="100%" y2="100%">
      <stop offset="0%" style="stop-color:#8B5CF6;stop-opacity:1" />
      <stop offset="100%" style="stop-color:#3B82F6;stop-opacity:1" />
    </linearGradient>
  </defs>
  <rect width="32" height="32" rx="8" fill="url(#grad1)"/>
  <path d="M8 12C8 10.8954 8.89543 10 10 10H22C23.1046 10 24 10.8954 24 12V20C24 21.1046 23.1046 22 22 22H10C8.89543 22 8 21.1046 8 20V12Z" fill="white" fill-opacity="0.9"/>
  <path d="M12 14H20V16H12V14Z" fill="url(#grad1)"/>
  <path d="M12 18H18V20H12V18Z" fill="url(#grad1)"/>
  <circle cx="16" cy="8" r="2" fill="white" fill-opacity="0.9"/>
  <path d="M14 6L16 8L18 6" stroke="url(#grad1)" stroke-width="1.5" stroke-linecap="round" stroke-linejoin="round"/>
</svg>
